<svg height="1080" width="1080" fill="none" viewBox="0 0 1080 1080" xmlns="http://www.w3.org/2000/svg">
	<path d="M532 379C664.548 379 772 486.452 772 619C772 751.548 724.548 899 592 899C492.56 899 373.476 816.011 320.19 718.585C317.498 718.86 314.765 719 312 719C267.817 719 232 683.183 232 639C232 599.135 261.159 566.08 299.312 560.001C325.599 455.979 419.81 379 532 379ZM295.859 624.545L304.141 655.455Z" fill="white" fillRule="evenodd"/>
	<path d="M295.859 624.545L304.141 655.455M532 379C664.548 379 772 486.452 772 619C772 751.548 724.548 899 592 899C492.56 899 373.476 816.011 320.19 718.585C317.498 718.86 314.765 719 312 719C267.817 719 232 683.183 232 639C232 599.135 261.159 566.08 299.312 560.001C325.599 455.979 419.81 379 532 379Z" stroke="black" strokeLinecap="round" strokeLinejoin="round" strokeWidth="24"/>
	<path d="M637.78 595.783C655.179 637.676 662.944 666.654 661.074 682.716C659.204 698.778 647.513 703.54 625.999 697" stroke="black" strokeLinecap="round" strokeLinejoin="round" strokeWidth="16"/>
	<path d="M572 769C585.776 774.333 599.109 777 612 777C624.891 777 638.224 774.333 652 769" stroke="black" strokeLinecap="round" strokeLinejoin="round" strokeWidth="16"/>
	<path d="M570 516C583.255 516 594 526.745 594 540C594 553.255 583.255 564 570 564C556.745 564 546 553.255 546 540C546 526.745 556.745 516 570 516ZM708 516C721.255 516 732 526.745 732 540C732 553.255 721.255 564 708 564C694.745 564 684 553.255 684 540C684 526.745 694.745 516 708 516ZM562 526C558.686 526 556 528.686 556 532C556 535.314 558.686 538 562 538C565.314 538 568 535.314 568 532C568 528.686 565.314 526 562 526ZM700 526C696.686 526 694 528.686 694 532C694 535.314 696.686 538 700 538C703.314 538 706 535.314 706 532C706 528.686 703.314 526 700 526Z" fill="black" fillRule="evenodd"/>
	<path d="M525 508C537.889 497.333 552.889 492 570 492C587.111 492 602.111 497.333 615 508" stroke="black" strokeLinecap="round" strokeLinejoin="round" strokeWidth="16"/>
	<path d="M663 508C675.889 497.333 690.889 492 708 492C725.111 492 740.111 497.333 753 508" stroke="black" strokeLinecap="round" strokeLinejoin="round" strokeWidth="16"/>
	<path d="M623.001 264.001C701.811 298.152 736.675 344.124 741.001 379.001C743.96 402.856 738.293 428.189 724.001 455.001C666.001 448.334 620.334 452.001 587.001 466.001C520.82 493.797 452.82 492.13 383.001 461.001C391.198 494.979 399.001 522.001 395.001 559.001C392.334 583.667 384.334 621.334 371.001 672.001C346.673 617.195 331.34 585.528 325.001 577.001C318.662 568.473 305.995 562.473 287.001 559.001C271.636 501.923 259.001 475.001 269.001 431.001C279.001 387.001 315.913 338.293 358.001 325.001C362.715 323.512 356.049 314.178 338.001 297.001C388.267 282.039 424.376 273.412 446.326 271.122C454.056 270.316 451.28 260.275 438.001 241.001C508.794 233.567 570.461 241.233 623.001 264.001Z" fill="black" fillRule="evenodd" stroke="black" strokeLinecap="round" strokeLinejoin="round" strokeWidth="12"/>
	<path d="M287.695 658.293C276.76 647.358 276.76 629.63 287.695 618.695C298.63 607.76 316.358 607.76 327.293 618.695C337.267 628.669 338.143 644.297 329.921 655.264L362.083 687.426C366.925 692.268 366.925 700.119 362.083 704.962C357.24 709.804 349.389 709.804 344.547 704.962L306.04 666.456C299.371 666.111 292.792 663.389 287.695 658.293Z" fill="white" stroke="black" strokeLinecap="round" strokeLinejoin="round" strokeWidth="8"/>
	<path d="M292.787 631.706C291.225 630.144 291.225 627.611 292.787 626.049C294.349 624.487 296.882 624.487 298.444 626.049L304.101 631.706C305.663 633.268 305.663 635.801 304.101 637.363C302.538 638.925 300.006 638.925 298.444 637.363L292.787 631.706Z" fill="black"/>
</svg>